<?xml version="1.0" encoding="utf-8"?>
<!-- Generator: Adobe Illustrator 28.2.0, SVG Export Plug-In . SVG Version: 6.00 Build 0)  -->
<svg version="1.1" id="Layer_1" xmlns="http://www.w3.org/2000/svg" xmlns:xlink="http://www.w3.org/1999/xlink" x="0px" y="0px"
	 viewBox="0 0 588 323" style="enable-background:new 0 0 588 323;" xml:space="preserve">
<style type="text/css">
	.st0{fill:#FFFFFF;}
	.st1{fill:#222728;}
	.st2{fill:#FF7B7B;}
	.st3{fill:#02ADC9;}
	.st4{fill:#FFBF0D;}
</style>
<g>
	<g>
		<path class="st0" d="M63.65,207.05c-27.14,0-48.4-15.42-48.4-35.12s21.26-35.12,48.4-35.12c0.86,0,1.73,0.02,2.6,0.05
			c0.03-13.2,0.31-26.21,0.85-38.69c0.38-8.66,0.8-17.15,1.25-25.27c-4.64-1.63-8.23-5.53-9.42-10.41l-3.61-14.8
			C53.44,39.93,58,32.16,65.72,30.01c3.68-1.03,7.57-1.97,11.55-2.81c5.36-1.13,10.68-2.07,15.79-2.8
			c5.11-0.73,9.94-1.28,14.35-1.63c4.52-0.35,8.18-0.53,11.21-0.53c3.32,0,7.24,0.25,11.96,0.77c4.97,0.55,10.14,1.67,15.36,3.34
			c5.66,1.81,11.01,4.55,15.88,8.15c3.27,2.41,6.17,5.33,8.68,8.73c0.04-0.83,0.08-1.66,0.12-2.5c0.13-2.3,0.26-4.4,0.38-6.22
			c0.49-7.01,6.39-12.5,13.42-12.5l19.91,0.33c3.73,0.06,7.3,1.68,9.78,4.43c2.48,2.75,3.72,6.45,3.4,10.16
			c-0.21,2.44-0.43,5.09-0.66,7.95c-0.25,3.03-0.43,6.2-0.53,9.42c-0.12,3.75-1.76,7.19-4.45,9.6c0.09,0.09,0.18,0.18,0.26,0.27
			c1.67,1.79,2.81,4,3.32,6.37l4.44-5.86c2.69-3.55,6.95-5.67,11.41-5.67c3.08,0,6.02,0.97,8.5,2.79c4.35,3.2,9.05,6.81,13.97,10.72
			c3.63,2.88,7.32,5.9,11,9c3.08-2.81,6.21-5.65,9.35-8.48c4.45-4.02,8.8-7.92,12.91-11.57c2.62-2.33,5.99-3.61,9.49-3.61
			c3.86,0,7.61,1.59,10.3,4.37l11.23,11.61c2.44,2.52,3.86,5.86,4.01,9.33c0.89-1.34,1.84-2.65,2.85-3.94
			c4.75-6.06,11.01-11.01,18.62-14.73c7.61-3.72,16.77-5.61,27.22-5.61c7.59,0,13.95,0.86,19.45,2.63c5.62,1.81,10.4,4.3,14.2,7.39
			c3.59,2.92,6.46,6.15,8.55,9.61c0.24-4.57,0.52-9.23,0.85-13.91c0.43-6.27,0.91-12.22,1.43-17.69c0.31-3.28,0.62-6.33,0.91-9.08
			c0.9-8.46,8-14.85,16.52-14.85l13.74,0.15c4.76,0.05,9.27,2.14,12.38,5.74c3.11,3.59,4.53,8.35,3.9,13.06
			c-0.39,2.95-0.78,6.14-1.14,9.49c-0.64,5.88-1.17,11.93-1.58,17.98c-0.42,6.15-0.75,11.85-0.97,16.95
			c-0.23,5.06-0.34,9.12-0.34,12.07c0,7.57,0.13,13.69,0.39,18.2c1.09-0.22,2.2-0.33,3.32-0.33c6.35,0,12.07,3.52,14.92,9.19
			l5.96,11.85c3.32,6.59,1.88,14.66-3.5,19.61c-2.61,2.4-5.54,4.69-8.71,6.79c-5.82,3.86-12.9,5.81-21.04,5.81
			c-7.3,0-13.59-1.72-18.7-5.1c-4.92-3.26-8.81-7.72-11.58-13.26c-0.32-0.64-0.63-1.29-0.93-1.96c-0.88,1.38-2,2.61-3.34,3.65
			c-2.36,1.83-4.94,3.74-7.65,5.67c-4.59,3.25-10.14,5.94-16.51,8.01c-6.41,2.08-14.22,3.14-23.21,3.14
			c-10.72,0-20.38-2.18-28.71-6.49c-6.85-3.54-12.56-8.27-17.05-14.11c-0.79,1.7-1.92,3.23-3.35,4.53l-11.89,10.82
			c-2.64,2.4-6.06,3.73-9.63,3.73c-4.06,0-7.95-1.74-10.66-4.77c-1.29-1.44-2.87-3.12-4.71-5.01c-3.08-3.17-6.72-6.79-10.83-10.76
			c-1.8-1.73-3.65-3.5-5.54-5.27c-1.83,1.85-3.61,3.67-5.31,5.43c-3.92,4.06-7.37,7.74-10.25,10.94c-1.65,1.83-3.06,3.45-4.19,4.84
			c-2.73,3.34-6.77,5.25-11.08,5.25c-3.43,0-6.75-1.24-9.35-3.49l-9.78-8.46c-0.42,2.74-1.69,5.33-3.64,7.33
			c-2.52,2.59-6.04,4.08-9.66,4.08h-19.19c-7.23,0-13.14-5.65-13.44-12.87c-0.22-5.19-0.38-10.72-0.46-16.43
			c-0.09-6.64-0.14-13.4-0.14-20.1c0-5.27,0.03-10.51,0.1-15.64c-3.81,4.49-8.41,8.24-13.75,11.18c-6.5,3.58-13.71,6.17-21.44,7.69
			c-7.32,1.44-14.66,2.18-21.82,2.18c-0.41,0-0.81,0-1.22,0c0,0.69,0,1.38,0,2.07c0,6,0.05,11.55,0.14,16.51l0.52,29.03
			C111.71,191.62,90.6,207.05,63.65,207.05z M215.13,99.08c-0.01,2.47-0.02,4.98-0.02,7.52c0,6.77,0.05,13.55,0.14,20.15
			c0.02,1.28,0.04,2.54,0.06,3.79c2.89-3.22,5.92-6.48,9.03-9.74c2.57-2.69,5.21-5.4,7.87-8.1c-3.24-2.72-6.35-5.29-9.29-7.64
			C219.94,102.68,217.33,100.67,215.13,99.08z M298.04,111.3c3.21,3.04,6.33,6.08,9.31,9.06c1.76,1.76,3.48,3.5,5.14,5.21
			c-0.4-2.76-0.6-5.61-0.6-8.52c0-6.04,1.01-12.39,3.01-18.89c0.25-0.81,0.51-1.61,0.8-2.4c-2.29,1.86-5.08,4.25-8.31,7.12
			C304.46,105.48,301.32,108.31,298.04,111.3z M409.9,120.87c0.22,0.27,0.43,0.55,0.62,0.83l2.66,3.83
			c-0.25-2.6-0.44-5.26-0.55-7.98c0-0.07-0.01-0.13-0.01-0.2C411.8,118.58,410.89,119.75,409.9,120.87z"/>
		<path class="st1" d="M184.42,24.5l0.19,0l19.68,0.33c3.04,0.05,5.94,1.36,7.97,3.6c2.02,2.24,3.03,5.25,2.77,8.27
			c-0.21,2.44-0.43,5.09-0.66,7.96c-0.25,3.08-0.43,6.29-0.54,9.54c-0.14,4.26-2.64,7.85-6.23,9.56c1,0.55,1.92,1.26,2.72,2.11
			c2.06,2.2,3.12,5.19,2.92,8.2c-0.08,1.2-0.15,2.47-0.21,3.82l8.87-11.71c2.22-2.93,5.74-4.68,9.41-4.68c2.54,0,4.96,0.8,7.01,2.31
			c4.32,3.19,9,6.77,13.9,10.66c4.16,3.3,8.39,6.78,12.61,10.37c3.6-3.28,7.28-6.62,10.97-9.96c4.44-4.02,8.78-7.9,12.89-11.55
			c2.16-1.92,4.94-2.97,7.82-2.97c3.18,0,6.28,1.31,8.5,3.61l11.23,11.61c2.31,2.39,3.51,5.67,3.3,8.99
			c-0.22,3.31-1.83,6.39-4.42,8.45c-2.5,1.99-5.66,4.68-9.38,7.99c-3.53,3.14-7.34,6.58-11.35,10.26
			c3.88,3.64,7.64,7.28,11.21,10.86c4.14,4.14,7.99,8.12,11.45,11.85c-1.76-5.24-2.65-10.9-2.65-16.93c0-5.79,0.98-11.89,2.9-18.15
			c1.98-6.45,5.21-12.54,9.58-18.11c4.51-5.76,10.49-10.48,17.75-14.03c7.27-3.55,16.06-5.35,26.12-5.35
			c7.33,0,13.44,0.82,18.68,2.51c5.33,1.72,9.83,4.06,13.39,6.95c3.55,2.89,6.34,6.08,8.3,9.49c1.85,3.22,3.14,6.41,3.84,9.48
			c0.07-2.16,0.16-4.39,0.26-6.67c0.28-5.97,0.64-12.15,1.07-18.37c0.43-6.23,0.91-12.16,1.43-17.63c0.31-3.27,0.61-6.32,0.9-9.06
			c0.76-7.19,6.8-12.61,14.03-12.61l13.71,0.15c4.04,0.04,7.87,1.82,10.52,4.87c2.64,3.05,3.85,7.09,3.32,11.1
			c-0.4,2.97-0.78,6.18-1.15,9.55c-0.64,5.91-1.18,11.99-1.59,18.07c-0.42,6.17-0.75,11.89-0.98,17.01
			c-0.23,5.11-0.34,9.2-0.34,12.18c0,8.35,0.16,14.95,0.47,19.61c0.05,0.69,0.1,1.33,0.15,1.92c1.75-0.75,3.65-1.16,5.59-1.16
			c5.4,0,10.26,2.99,12.69,7.81l5.96,11.85c2.82,5.6,1.6,12.45-2.96,16.64c-2.52,2.31-5.34,4.52-8.4,6.54
			c-5.4,3.58-12.02,5.4-19.66,5.4c-6.8,0-12.62-1.58-17.32-4.69c-4.55-3.01-8.16-7.15-10.73-12.29c-1.35-2.69-2.48-5.62-3.39-8.76
			c0.02,3.63-1.58,7.21-4.64,9.59c-2.34,1.82-4.88,3.7-7.57,5.6c-4.38,3.1-9.71,5.68-15.83,7.67c-6.17,2-13.71,3.01-22.44,3.01
			c-10.32,0-19.59-2.09-27.56-6.21c-8.16-4.22-14.62-10.21-19.21-17.8c-0.06-0.09-0.11-0.19-0.17-0.29c0,0.22,0.01,0.44,0,0.67
			c-0.14,3.16-1.51,6.08-3.85,8.21l-11.89,10.82c-2.18,1.98-5,3.08-7.95,3.08c0,0,0,0,0,0c-3.35,0-6.56-1.43-8.8-3.93
			c-1.31-1.46-2.91-3.17-4.77-5.09c-3.11-3.2-6.77-6.84-10.88-10.82c-2.35-2.27-4.81-4.6-7.35-6.95c-2.45,2.45-4.81,4.85-7.05,7.17
			c-3.93,4.07-7.4,7.77-10.31,11c-1.67,1.85-3.11,3.51-4.27,4.93c-2.26,2.75-5.59,4.34-9.15,4.34c-2.83,0-5.57-1.02-7.72-2.88
			l-12.26-10.6c-0.6-0.52-1.13-1.08-1.61-1.69c0.03,1.22,0.07,2.34,0.1,3.36c0.09,2.94-1.04,5.84-3.08,7.95
			c-2.05,2.11-4.92,3.32-7.87,3.32h-19.19c-5.89,0-10.7-4.6-10.95-10.47c-0.22-5.17-0.38-10.67-0.45-16.36
			c-0.09-6.62-0.14-13.37-0.14-20.07c0-8.12,0.08-16.09,0.24-23.73c-0.41,0.73-0.84,1.44-1.29,2.13
			c-4.11,6.23-9.6,11.26-16.31,14.95c-6.27,3.45-13.24,5.95-20.72,7.43c-7.16,1.41-14.34,2.13-21.34,2.13
			c-1.24,0-2.48-0.02-3.7-0.05c-0.01,1.54-0.02,3.08-0.02,4.61c0,6,0.05,11.58,0.14,16.56l0.52,29.03
			c0,18.29-20.01,32.62-45.55,32.62c-25.74,0-45.9-14.33-45.9-32.62s20.16-32.62,45.9-32.62c1.71,0,3.41,0.07,5.1,0.2v-0.61
			c0-13.87,0.29-27.53,0.85-40.61c0.41-9.38,0.87-18.53,1.37-27.26c-4.65-0.87-8.45-4.38-9.61-9.12l-3.61-14.8
			c-1.57-6.45,2.22-12.9,8.63-14.69c3.63-1.01,7.46-1.95,11.39-2.78c5.31-1.12,10.57-2.05,15.63-2.77c5.06-0.72,9.83-1.26,14.2-1.61
			c4.45-0.35,8.05-0.52,11.01-0.52c3.23,0,7.06,0.25,11.69,0.75c4.81,0.53,9.81,1.62,14.87,3.23c5.4,1.73,10.5,4.35,15.15,7.78
			c4.98,3.68,9.06,8.62,12.13,14.7c0.12,0.25,0.24,0.5,0.36,0.75c0-0.34-0.01-0.68-0.01-1.05c0-3.17,0.1-6.55,0.29-10.05
			c0.13-2.29,0.26-4.37,0.38-6.19C173.89,28.97,178.69,24.5,184.42,24.5 M212.93,137.12c0.24-0.34,0.49-0.67,0.77-0.98
			c3.9-4.46,8.09-9.04,12.45-13.6c3.18-3.32,6.44-6.67,9.74-9.99c-3.99-3.39-7.81-6.55-11.41-9.43c-3.82-3.06-7.05-5.51-9.59-7.27
			c-0.83-0.58-1.57-1.26-2.22-2.02c-0.04,4.14-0.06,8.42-0.06,12.78c0,6.81,0.05,13.6,0.14,20.19
			C212.8,130.38,212.86,133.83,212.93,137.12 M417.21,135.92c-0.09-0.45-0.18-0.89-0.26-1.34c-0.96-5.33-1.57-11.09-1.81-17.12
			c-0.15-3.64-0.25-7.34-0.31-11.04c-1.44,5.54-4.25,10.42-8.39,14.47c0.76,0.65,1.44,1.41,2.03,2.25l7.91,11.37
			C416.69,134.96,416.96,135.43,417.21,135.92 M184.43,19.5h-0.02c-8.34,0-15.33,6.51-15.91,14.83c-0.06,0.79-0.11,1.64-0.17,2.53
			c-1.57-1.6-3.25-3.05-5.04-4.37c-5.1-3.76-10.68-6.63-16.6-8.52c-5.38-1.72-10.71-2.88-15.84-3.44
			c-4.82-0.53-8.82-0.78-12.24-0.78c-3.09,0-6.82,0.18-11.41,0.53c-4.47,0.35-9.35,0.91-14.51,1.64
			c-5.17,0.74-10.54,1.69-15.95,2.83c-4.04,0.85-7.98,1.81-11.7,2.85c-9.02,2.52-14.36,11.6-12.15,20.69l3.61,14.8
			c1.24,5.08,4.69,9.24,9.26,11.45c-0.42,7.6-0.81,15.5-1.16,23.54c-0.51,11.71-0.79,23.88-0.85,36.25c-0.04,0-0.07,0-0.11,0
			c-28.54,0-50.9,16.52-50.9,37.62s22.36,37.62,50.9,37.62c28.35,0,50.55-16.52,50.55-37.62v-0.04l0-0.04l-0.52-29.03
			c-0.09-4.83-0.14-10.22-0.14-16.04c6.91-0.08,13.98-0.83,21.03-2.22c7.98-1.57,15.44-4.25,22.16-7.95
			c3.66-2.02,6.99-4.39,9.98-7.11c-0.02,3.11-0.04,6.24-0.04,9.38c0,6.71,0.05,13.49,0.14,20.14c0.08,5.73,0.23,11.29,0.46,16.5
			c0.37,8.56,7.37,15.26,15.94,15.26h19.19c4.3,0,8.47-1.76,11.46-4.84c1.32-1.36,2.37-2.94,3.13-4.65l6.86,5.93
			c3.05,2.64,6.96,4.1,10.99,4.1c5.06,0,9.81-2.25,13.02-6.17c1.11-1.36,2.5-2.96,4.11-4.75c2.87-3.18,6.3-6.84,10.19-10.88
			c1.16-1.2,2.36-2.43,3.58-3.67c1.27,1.2,2.52,2.4,3.74,3.57c4.08,3.94,7.7,7.54,10.77,10.7c1.81,1.87,3.37,3.53,4.64,4.94
			c3.19,3.56,7.75,5.6,12.52,5.6c4.19,0,8.21-1.55,11.31-4.38l11.89-10.82c0.72-0.65,1.37-1.36,1.95-2.1
			c4.31,4.88,9.54,8.91,15.61,12.05c8.68,4.49,18.73,6.77,29.85,6.77c9.25,0,17.31-1.1,23.98-3.26c6.61-2.15,12.39-4.96,17.18-8.35
			c2.74-1.94,5.35-3.87,7.74-5.73c0.44-0.34,0.86-0.7,1.26-1.08c2.91,5.27,6.83,9.56,11.67,12.76c5.53,3.66,12.29,5.52,20.08,5.52
			c8.64,0,16.18-2.1,22.42-6.23c3.28-2.17,6.31-4.54,9.02-7.03c6.2-5.7,7.86-14.98,4.04-22.57l-5.96-11.85
			c-3.28-6.52-9.85-10.57-17.15-10.57c-0.32,0-0.64,0.01-0.96,0.02c-0.17-4.11-0.26-9.27-0.26-15.39c0-2.91,0.11-6.93,0.34-11.96
			c0.23-5.08,0.55-10.76,0.97-16.89c0.41-6.01,0.94-12.02,1.58-17.87c0.36-3.32,0.74-6.49,1.13-9.43c0.72-5.42-0.92-10.9-4.49-15.03
			c-3.58-4.13-8.77-6.54-14.24-6.6l-13.71-0.15l-0.03,0h-0.03c-9.8,0-17.97,7.35-19.01,17.09c-0.3,2.79-0.6,5.85-0.91,9.11
			c-0.52,5.5-1.01,11.47-1.44,17.76c-0.16,2.38-0.32,4.75-0.46,7.12c-1.45-1.6-3.07-3.13-4.86-4.58c-4.04-3.29-9.09-5.92-15.02-7.83
			c-5.75-1.85-12.36-2.76-20.22-2.76c-10.83,0-20.36,1.97-28.31,5.86c-7.78,3.8-14.23,8.86-19.17,15.03
			c-0.8-1.91-1.95-3.67-3.42-5.19L308.6,60.49c-3.15-3.26-7.56-5.13-12.09-5.13c-4.11,0-8.07,1.5-11.15,4.24
			c-4.12,3.66-8.47,7.56-12.92,11.58c-2.6,2.35-5.19,4.69-7.75,7.02c-3.14-2.62-6.28-5.18-9.38-7.64
			c-4.95-3.92-9.67-7.55-14.04-10.77c-2.91-2.15-6.36-3.28-9.98-3.28c-5.23,0-10.24,2.49-13.4,6.66l-1.74,2.3
			c-0.29-0.5-0.6-0.99-0.94-1.47c2.18-2.66,3.47-6.02,3.59-9.62c0.1-3.18,0.28-6.31,0.53-9.29c0.23-2.86,0.45-5.51,0.66-7.94
			c0.38-4.4-1.09-8.79-4.03-12.05c-2.95-3.26-7.17-5.18-11.59-5.25l-19.68-0.33l-0.23,0L184.43,19.5L184.43,19.5z M301.71,111.34
			c2.56-2.32,5.01-4.53,7.34-6.6c0.68-0.6,1.33-1.18,1.97-1.74c-1.08,4.8-1.63,9.5-1.63,14.03c0,0.62,0.01,1.23,0.03,1.84
			c-0.1-0.1-0.19-0.19-0.29-0.29C306.73,116.2,304.25,113.78,301.71,111.34L301.71,111.34z M217.72,124.2
			c-0.07-5.79-0.11-11.69-0.11-17.59c0-0.85,0-1.69,0-2.54c1.17,0.9,2.42,1.89,3.74,2.95c2.29,1.84,4.69,3.8,7.17,5.87
			c-2.03,2.07-4.03,4.14-6,6.19C220.9,120.79,219.29,122.5,217.72,124.2L217.72,124.2z"/>
	</g>
	<g>
		<g>
			<polygon class="st2" points="418.49,298.5 83.87,298.5 117.65,180.05 452.26,180.05 			"/>
		</g>
		<g>
			<g>
				<g>
					<polygon class="st2" points="446.4,199.79 452.03,180.05 471.77,180.05 466.14,199.79 					"/>
				</g>
				<g>
					<polygon class="st2" points="435.14,239.28 440.77,219.53 460.51,219.53 454.88,239.28 					"/>
				</g>
				<g>
					<polygon class="st2" points="423.88,278.76 429.51,259.02 449.26,259.02 443.63,278.76 					"/>
				</g>
				<g>
					<polygon class="st2" points="429.51,259.02 435.14,239.28 454.88,239.28 449.26,259.02 					"/>
				</g>
				<g>
					<polygon class="st2" points="454.88,239.28 460.51,219.53 480.26,219.53 474.63,239.28 					"/>
				</g>
				<g>
					<polygon class="st2" points="443.63,278.76 449.26,259.02 469,259.02 463.37,278.76 					"/>
				</g>
				<g>
					<polygon class="st2" points="460.51,219.53 466.14,199.79 485.88,199.79 480.26,219.53 					"/>
				</g>
				<g>
					<polygon class="st2" points="438,298.5 443.63,278.76 463.37,278.76 457.74,298.5 					"/>
				</g>
				<g>
					<polygon class="st2" points="485.76,199.79 491.39,180.05 511.14,180.05 505.51,199.79 					"/>
				</g>
				<g>
					<polygon class="st2" points="474.51,239.28 480.14,219.53 499.88,219.53 494.25,239.28 					"/>
				</g>
				<g>
					<polygon class="st2" points="463.25,278.76 468.88,259.02 488.62,259.02 482.99,278.76 					"/>
				</g>
				<g>
					<polygon class="st2" points="505.51,199.79 511.14,180.05 530.88,180.05 525.25,199.79 					"/>
				</g>
				<g>
					<polygon class="st2" points="499.88,219.53 505.51,199.79 525.25,199.79 519.62,219.53 					"/>
				</g>
				<g>
					<polygon class="st2" points="477.36,298.5 482.99,278.76 502.73,278.76 497.11,298.5 					"/>
				</g>
				<g>
					<polygon class="st2" points="488.62,259.02 494.25,239.28 513.99,239.28 508.36,259.02 					"/>
				</g>
				<g>
					<polygon class="st2" points="525.13,199.79 530.76,180.05 550.5,180.05 544.87,199.79 					"/>
				</g>
				<g>
					<polygon class="st2" points="513.87,239.28 519.5,219.53 539.24,219.53 533.61,239.28 					"/>
				</g>
				<g>
					<polygon class="st2" points="502.61,278.76 508.24,259.02 527.99,259.02 522.36,278.76 					"/>
				</g>
				<g>
					<polygon class="st2" points="533.61,239.28 539.24,219.53 558.99,219.53 553.36,239.28 					"/>
				</g>
				<g>
					<polygon class="st2" points="527.99,259.02 533.61,239.28 553.36,239.28 547.73,259.02 					"/>
				</g>
				<g>
					<polygon class="st2" points="544.87,199.79 550.5,180.05 570.24,180.05 564.61,199.79 					"/>
				</g>
				<g>
					<polygon class="st2" points="519.5,219.53 525.13,199.79 544.87,199.79 539.24,219.53 					"/>
				</g>
			</g>
		</g>
		<g>
			<g>
				<path class="st0" d="M130.17,199.86h15.74l-4.49,15.74h-15.74L130.17,199.86z M125.69,215.6h15.74l-4.49,15.74H121.2
					L125.69,215.6z M121.2,231.34h15.74l-4.49,15.74h-15.74L121.2,231.34z M116.71,247.08h15.74l-4.49,15.74h-15.74L116.71,247.08z
					 M112.22,262.82h15.74l-4.49,15.74h-15.74L112.22,262.82z M145.91,199.86h15.74l-4.49,15.74h-15.74L145.91,199.86z
					 M157.16,215.6h15.74l-4.49,15.74h-15.74L157.16,215.6z M152.68,231.34h15.74l-4.49,15.74h-15.74L152.68,231.34z M148.19,247.08
					h15.74l-4.49,15.74H143.7L148.19,247.08z M143.7,262.82h15.74l-4.49,15.74h-15.74L143.7,262.82z"/>
			</g>
			<g>
				<path class="st0" d="M193.13,199.86h15.74l-4.49,15.74h-15.74L193.13,199.86z M188.64,215.6h15.74l-4.49,15.74h-15.74
					L188.64,215.6z M184.15,231.34h15.74l-4.49,15.74h-15.74L184.15,231.34z M179.67,247.08h15.74l-4.49,15.74h-15.74L179.67,247.08
					z M175.18,262.82h15.74l-4.49,15.74h-15.74L175.18,262.82z M208.87,199.86h15.74l-4.49,15.74h-15.74L208.87,199.86z
					 M190.92,262.82h15.74l-4.49,15.74h-15.74L190.92,262.82z M224.61,199.86h15.74l-4.49,15.74h-15.74L224.61,199.86z
					 M220.12,215.6h15.74l-4.49,15.74h-15.74L220.12,215.6z M215.63,231.34h15.74l-4.49,15.74h-15.74L215.63,231.34z M211.14,247.08
					h15.74l-4.49,15.74h-15.74L211.14,247.08z M206.66,262.82h15.74l-4.49,15.74h-15.74L206.66,262.82z"/>
			</g>
			<g>
				<path class="st0" d="M256.08,199.86h15.74l-4.49,15.74H251.6L256.08,199.86z M271.82,199.86h15.74l-4.49,15.74h-15.74
					L271.82,199.86z M267.34,215.6h15.74l-4.49,15.74h-15.74L267.34,215.6z M262.85,231.34h15.74l-4.49,15.74h-15.74L262.85,231.34z
					 M258.36,247.08h15.74l-4.49,15.74h-15.74L258.36,247.08z M253.87,262.82h15.74l-4.49,15.74h-15.74L253.87,262.82z
					 M287.56,199.86h15.74l-4.49,15.74h-15.74L287.56,199.86z"/>
			</g>
			<g>
				<path class="st0" d="M319.04,199.86h15.74l-4.49,15.74h-15.74L319.04,199.86z M314.55,215.6h15.74l-4.49,15.74h-15.74
					L314.55,215.6z M310.06,231.34h15.74l-4.49,15.74h-15.74L310.06,231.34z M305.58,247.08h15.74l-4.49,15.74h-15.74L305.58,247.08
					z M301.09,262.82h15.74l-4.49,15.74H296.6L301.09,262.82z M334.78,199.86h15.74l-4.49,15.74h-15.74L334.78,199.86z
					 M325.8,231.34h15.74l-4.49,15.74h-15.74L325.8,231.34z M316.83,262.82h15.74l-4.49,15.74h-15.74L316.83,262.82z M350.52,199.86
					h15.74l-4.49,15.74h-15.74L350.52,199.86z M332.57,262.82h15.74l-4.49,15.74h-15.74L332.57,262.82z"/>
			</g>
			<g>
				<path class="st0" d="M381.99,199.86h15.74l-4.49,15.74h-15.74L381.99,199.86z M377.51,215.6h15.74l-4.49,15.74h-15.74
					L377.51,215.6z M373.02,231.34h15.74l-4.49,15.74h-15.74L373.02,231.34z M364.04,262.82h15.74l-4.49,15.74h-15.74L364.04,262.82
					z M397.73,199.86h15.74l-4.49,15.74h-15.74L397.73,199.86z M388.76,231.34h15.74l-4.49,15.74h-15.74L388.76,231.34z
					 M379.78,262.82h15.74l-4.49,15.74H375.3L379.78,262.82z M413.47,199.86h15.74l-4.49,15.74h-15.74L413.47,199.86z M404.5,231.34
					h15.74l-4.49,15.74h-15.74L404.5,231.34z M400.01,247.08h15.74l-4.49,15.74h-15.74L400.01,247.08z M395.52,262.82h15.74
					l-4.49,15.74h-15.74L395.52,262.82z"/>
			</g>
		</g>
	</g>
	<g>
		<g>
			<path class="st3" d="M183.23,157.51c-1.44,0-2.63-1.12-2.69-2.56c-0.22-5.08-0.37-10.46-0.45-16.12
				c-0.09-6.63-0.14-13.28-0.14-19.95c0-8.74,0.09-17.25,0.28-25.52c0.16-7.24,0.37-13.91,0.6-20.01c0.06-1.44,1.23-2.56,2.67-2.57
				l18.77-0.11c1.56-0.01,2.8,1.29,2.7,2.85c-0.25,3.75-0.41,8.13-0.49,13.14c-0.09,6.35-0.14,13-0.14,19.95
				c0,6.86,0.05,13.63,0.14,20.31c0.09,6.68,0.21,12.71,0.35,18.12c0.1,3.88,0.19,7.12,0.27,9.72c0.05,1.52-1.16,2.76-2.69,2.76
				L183.23,157.51z M183.84,56.55c-1.44,0-2.61-1.14-2.69-2.58c0-0.01,0-0.02,0-0.03c-0.05-0.89-0.07-1.9-0.07-3.03
				c0-3.01,0.09-6.2,0.28-9.59c0.12-2.25,0.25-4.28,0.37-6.07c0.1-1.43,1.3-2.51,2.73-2.48l19.68,0.33
				c1.58,0.03,2.77,1.33,2.63,2.91c-0.21,2.45-0.43,5.12-0.67,8c-0.26,3.22-0.45,6.53-0.56,9.93c-0.05,1.45-1.23,2.62-2.68,2.62
				L183.84,56.55z"/>
		</g>
		<g>
			<path class="st3" d="M232.54,157.19l-12.26-10.6c-1.48-1.28-1.66-3.53-0.37-5c3.84-4.39,7.91-8.83,12.21-13.33
				c4.3-4.5,8.71-8.99,13.21-13.45c1.46-1.45,1.39-3.85-0.17-5.2c-5.49-4.74-10.66-9.05-15.51-12.93c-3.99-3.2-7.34-5.74-10.06-7.62
				c-1.67-1.15-2.05-3.45-0.83-5.07l9.71-12.81c1.17-1.55,3.37-1.86,4.93-0.71c4.27,3.15,8.83,6.64,13.67,10.48
				c5.14,4.08,10.31,8.37,15.52,12.87c1.36,1.17,3.39,1.15,4.72-0.06c4.74-4.33,9.42-8.58,14.02-12.74
				c4.44-4.01,8.72-7.85,12.84-11.51c1.42-1.26,3.57-1.17,4.89,0.2l11.23,11.61c1.45,1.5,1.31,3.93-0.33,5.22
				c-2.63,2.09-5.88,4.85-9.74,8.29c-4.73,4.21-9.81,8.82-15.22,13.81c-1.52,1.4-1.5,3.82,0.02,5.22
				c5.16,4.75,10.06,9.45,14.71,14.11c4.48,4.48,8.55,8.7,12.19,12.66c1.33,1.45,1.24,3.7-0.22,5.03l-11.89,10.82
				c-1.46,1.33-3.71,1.21-5.02-0.26c-1.39-1.55-3.06-3.33-5-5.33c-3.2-3.29-6.89-6.96-11.07-11c-3.44-3.32-7.05-6.7-10.83-10.15
				c-1.36-1.24-3.58-1.19-4.89,0.1c-3.63,3.59-7.08,7.08-10.36,10.47c-4,4.14-7.5,7.87-10.51,11.21c-1.77,1.96-3.27,3.7-4.52,5.22
				C236.34,158.29,234.06,158.5,232.54,157.19z"/>
		</g>
		<g>
			<path class="st3" d="M368.05,158.92c-9.02,0-16.94-1.76-23.76-5.29c-6.82-3.53-12.13-8.44-15.93-14.73
				c-3.81-6.3-5.71-13.58-5.71-21.86c0-4.98,0.85-10.22,2.54-15.72c1.69-5.5,4.42-10.65,8.18-15.44c3.76-4.79,8.72-8.69,14.88-11.7
				c6.16-3.01,13.65-4.51,22.49-4.51c6.39,0,11.77,0.7,16.14,2.12c4.37,1.41,7.94,3.24,10.72,5.5c2.77,2.26,4.89,4.65,6.35,7.19
				c1.46,2.54,2.44,4.96,2.96,7.26c0.52,2.3,0.78,4.21,0.78,5.71c0,9.12-3.83,16.15-11.49,21.08c-7.66,4.94-18.5,7.4-32.5,7.4
				c-3.2,0-6.23-0.14-9.1-0.42c-0.03,0-0.06-0.01-0.09-0.01c-3.56-0.35-5.65,4-3.06,6.47c1.2,1.14,2.55,2.11,4.06,2.92
				c4.14,2.21,8.41,3.31,12.83,3.31c6.39,0,12.03-1.15,16.92-3.45c3.72-1.75,7.28-4.23,10.68-7.43c1.7-1.61,4.42-1.38,5.75,0.54
				l7.91,11.37c1.15,1.65,0.81,3.91-0.78,5.15c-2.25,1.75-4.68,3.55-7.28,5.39c-3.71,2.63-8.25,4.82-13.61,6.56
				C382.57,158.05,375.95,158.92,368.05,158.92z M371.15,90.82c-5.55,0-10.43,1.41-14.66,4.23c-2.45,1.64-4.53,3.57-6.22,5.81
				c-1.78,2.35-0.36,5.77,2.57,6.1c0.44,0.05,0.88,0.1,1.33,0.14c2.3,0.24,4.58,0.35,6.84,0.35c2.07,0,4.44-0.19,7.12-0.56
				c2.68-0.37,5.31-0.94,7.9-1.69c2.58-0.75,4.72-1.71,6.42-2.89c1.69-1.17,2.54-2.56,2.54-4.16c0-0.75-0.38-1.69-1.13-2.82
				c-0.75-1.13-2.11-2.16-4.09-3.1C377.78,91.29,374.91,90.82,371.15,90.82z"/>
		</g>
		<g>
			<path class="st3" d="M449.97,158.78c-5.17,0-9.43-1.11-12.76-3.31c-3.34-2.21-5.97-5.24-7.9-9.09
				c-1.93-3.85-3.34-8.27-4.23-13.25c-0.89-4.98-1.46-10.32-1.69-16c-0.24-5.69-0.35-11.4-0.35-17.13c0-4.98,0.14-10.46,0.42-16.43
				c0.28-5.97,0.63-12.03,1.06-18.19c0.42-6.16,0.89-11.96,1.41-17.41c0.31-3.24,0.6-6.22,0.89-8.97c0.32-3,2.86-5.25,5.88-5.22
				l13.55,0.15c3.51,0.04,6.19,3.13,5.73,6.61c-0.41,3.04-0.8,6.29-1.17,9.75c-0.66,6.06-1.2,12.2-1.62,18.4
				c-0.42,6.2-0.75,11.94-0.99,17.2c-0.24,5.27-0.35,9.45-0.35,12.55c0,8.55,0.16,15.28,0.49,20.16c0.33,4.89,0.85,8.34,1.55,10.36
				c0.71,2.02,1.67,3.03,2.89,3.03c1.6,0,3.34-1.01,5.22-3.03v0c2.81-3.02,7.77-2.32,9.63,1.37l5.96,11.85
				c1.15,2.29,0.71,5.11-1.18,6.85c-2.2,2.03-4.66,3.94-7.36,5.73C461.02,157.44,455.99,158.78,449.97,158.78z"/>
		</g>
		<g>
			<path class="st3" d="M100.42,143.06c-0.1-5.12-0.14-10.69-0.14-16.71c0-3.03,0.02-6.09,0.07-9.17c0.03-2.26,1.95-4.03,4.2-3.89
				c2.5,0.15,5.07,0.23,7.72,0.23c6.49,0,13.07-0.66,19.74-1.97c6.67-1.32,12.78-3.5,18.33-6.56c5.55-3.05,10.01-7.14,13.4-12.27
				c3.38-5.12,5.08-11.54,5.08-19.25c0-7.42-1.25-13.61-3.74-18.54c-2.49-4.94-5.71-8.86-9.66-11.77c-3.95-2.91-8.2-5.1-12.76-6.56
				c-4.56-1.46-8.98-2.42-13.25-2.89c-4.28-0.47-7.87-0.71-10.79-0.71c-2.73,0-6.18,0.17-10.36,0.49
				c-4.18,0.33-8.74,0.85-13.68,1.55c-4.94,0.7-9.96,1.6-15.09,2.68c-3.77,0.8-7.39,1.68-10.88,2.65c-2.07,0.58-3.33,2.67-2.82,4.77
				l3.61,14.8c0.53,2.19,2.78,3.49,4.95,2.87c0.03-0.01,0.06-0.02,0.09-0.03c2.64-0.75,5.23,1.31,5.06,4.04
				c-0.61,10.18-1.16,20.79-1.63,31.81c-0.56,13.02-0.85,26.44-0.85,40.26c0,3.01,0,6.04,0,9.09c0,0.27,0,0.7,0,1.18
				c-4.15-1.03-8.65-1.59-13.36-1.59c-20.78,0-37.63,10.9-37.63,24.35s16.85,24.35,37.63,24.35s37.29-10.9,37.29-24.35 M111.7,91.66
				c-2.37,0-4.67-0.06-6.93-0.17c-2.16-0.11-3.88-1.94-3.8-4.11c0.16-4.77,0.36-9.46,0.58-14.06c0.22-4.57,0.5-8.87,0.84-12.92
				c0.16-1.91,1.64-3.45,3.55-3.63c1.47-0.14,2.94-0.26,4.43-0.37c2.58-0.19,5.1-0.28,7.54-0.28c9.4,0,16.36,1.27,20.87,3.81
				c4.51,2.54,6.77,6.44,6.77,11.7C145.55,84.99,134.27,91.66,111.7,91.66z"/>
		</g>
	</g>
	<g>
		<path class="st4" d="M485.06,100.61c10.07,2.9,18.58,9.47,24,18.46c1.24,2.1,3.61,3.25,6.05,2.93s4.44-2.04,5.1-4.38
			c2.9-10.07,9.47-18.58,18.46-24c2.1-1.24,3.25-3.61,2.93-6.05c-0.32-2.44-2.04-4.44-4.38-5.1c-10.07-2.9-18.58-9.47-24-18.46
			c-1.24-2.1-3.61-3.25-6.05-2.93s-4.44,2.04-5.1,4.38c-2.9,10.07-9.47,18.58-18.46,24c-2.1,1.24-3.25,3.61-2.93,6.05
			C481,97.95,482.71,99.96,485.06,100.61z"/>
	</g>
</g>
</svg>
