<?xml version="1.0" encoding="utf-8"?>
<!-- Generator: Adobe Illustrator 28.2.0, SVG Export Plug-In . SVG Version: 6.00 Build 0)  -->
<svg version="1.1" id="Layer_1" xmlns="http://www.w3.org/2000/svg" xmlns:xlink="http://www.w3.org/1999/xlink" x="0px" y="0px"
	 viewBox="0 0 161.61 153.7" style="enable-background:new 0 0 161.61 153.7;" xml:space="preserve">
<style type="text/css">
	.st0{fill:#B8DBE8;}
</style>
<path class="st0" d="M149.61,0v0.37c-7.76,1.11-12.29,5.32-16.33,9.13h-0.67v0.63c-4.37,4.11-8.68,7.85-16.88,7.85
	c-8.56,0-12.88-4.08-17.46-8.4c-4.72-4.45-10.07-9.5-20.47-9.5c-10.4,0-15.75,5.05-20.47,9.5c-4.58,4.32-8.9,8.4-17.46,8.4
	c-8.56,0-12.88-4.08-17.46-8.4c-4.72-4.45-10.06-9.5-20.47-9.5C0.87,0.08,0,0.76,0,1.59S0.87,3.1,1.95,3.1
	c8.56,0,12.88,4.08,17.46,8.4c4.72,4.45,10.06,9.5,20.47,9.5c10.4,0,15.75-5.05,20.47-9.5c4.58-4.32,8.9-8.4,17.46-8.4
	c8.57,0,12.89,4.08,17.46,8.4c4.72,4.45,10.07,9.5,20.47,9.5c7.89,0,12.87-2.91,16.88-6.25v28.57c-4.37,4.11-8.68,7.85-16.88,7.85
	c-8.56,0-12.88-4.08-17.46-8.4c-4.72-4.45-10.07-9.5-20.47-9.5c-10.4,0-15.75,5.05-20.47,9.5c-4.58,4.32-8.9,8.4-17.46,8.4
	c-8.56,0-12.88-4.08-17.46-8.4c-4.72-4.45-10.06-9.5-20.47-9.5C0.87,33.26,0,33.93,0,34.77c0,0.83,0.87,1.51,1.95,1.51
	c8.56,0,12.88,4.08,17.46,8.4c4.72,4.45,10.06,9.5,20.47,9.5c10.4,0,15.75-5.05,20.47-9.5c4.58-4.32,8.9-8.4,17.46-8.4
	c8.57,0,12.89,4.08,17.46,8.4c4.72,4.45,10.07,9.5,20.47,9.5c7.89,0,12.87-2.91,16.88-6.25v28.56c-4.37,4.11-8.68,7.85-16.88,7.85
	c-8.56,0-12.88-4.08-17.46-8.4c-4.72-4.45-10.07-9.5-20.47-9.5c-10.4,0-15.75,5.05-20.47,9.5c-4.58,4.32-8.9,8.4-17.46,8.4
	c-8.56,0-12.88-4.08-17.46-8.4c-4.72-4.45-10.06-9.5-20.47-9.5C0.87,66.43,0,67.11,0,67.94c0,0.83,0.87,1.51,1.95,1.51
	c8.56,0,12.88,4.08,17.46,8.4c4.72,4.45,10.06,9.5,20.47,9.5c10.4,0,15.75-5.05,20.47-9.5c4.58-4.32,8.9-8.4,17.46-8.4
	c8.57,0,12.89,4.08,17.46,8.4c4.72,4.45,10.07,9.5,20.47,9.5c7.89,0,12.87-2.91,16.88-6.25v28.57c-4.37,4.11-8.68,7.85-16.88,7.85
	c-8.56,0-12.88-4.08-17.46-8.4c-4.72-4.45-10.07-9.5-20.47-9.5c-10.4,0-15.75,5.05-20.47,9.5c-4.58,4.32-8.9,8.4-17.46,8.4
	c-8.56,0-12.88-4.08-17.46-8.4c-4.72-4.45-10.06-9.5-20.47-9.5c-1.08,0-1.95,0.67-1.95,1.51c0,0.83,0.87,1.51,1.95,1.51
	c8.56,0,12.88,4.08,17.46,8.4c4.72,4.45,10.06,9.5,20.47,9.5c10.4,0,15.75-5.05,20.47-9.5c4.58-4.32,8.9-8.4,17.46-8.4
	c8.57,0,12.89,4.08,17.46,8.4c4.72,4.45,10.07,9.5,20.47,9.5c7.89,0,12.87-2.91,16.88-6.25v28.57c-4.37,4.11-8.68,7.85-16.88,7.85
	c-8.56,0-12.88-4.08-17.46-8.4c-4.72-4.45-10.07-9.5-20.47-9.5c-10.4,0-15.75,5.05-20.47,9.5c-4.58,4.32-8.9,8.4-17.46,8.4
	c-8.56,0-12.88-4.08-17.46-8.4c-4.72-4.45-10.06-9.5-20.47-9.5c-1.08,0-1.95,0.67-1.95,1.51c0,0.83,0.87,1.51,1.95,1.51
	c8.56,0,12.88,4.08,17.46,8.4c4.72,4.45,10.06,9.5,20.47,9.5c10.4,0,15.75-5.05,20.47-9.5c4.58-4.32,8.9-8.4,17.46-8.4
	c8.57,0,12.89,4.08,17.46,8.4c4.72,4.45,10.07,9.5,20.47,9.5c10.4,0,15.75-5.05,20.47-9.5c3.99-3.76,7.78-7.34,14.35-8.2h11.06V0
	H149.61z M149.61,133.07c-5.73,0.82-9.69,3.32-13,6.11v-28.55c3.65-3.43,7.22-6.63,13-7.66V133.07z M149.61,99.9
	c-5.73,0.82-9.69,3.32-13,6.11V77.46c3.65-3.43,7.22-6.63,13-7.66V99.9z M149.61,66.72c-5.73,0.82-9.69,3.32-13,6.11V44.29
	c3.65-3.43,7.22-6.63,13-7.66V66.72z M149.61,33.55c-5.73,0.82-9.69,3.32-13,6.11V11.11c3.65-3.43,7.22-6.63,13-7.66V33.55z"/>
</svg>
