<?xml version="1.0" encoding="utf-8"?>
<!-- Generator: Adobe Illustrator 28.2.0, SVG Export Plug-In . SVG Version: 6.00 Build 0)  -->
<svg version="1.1" id="Layer_1" xmlns="http://www.w3.org/2000/svg" xmlns:xlink="http://www.w3.org/1999/xlink" x="0px" y="0px"
	 viewBox="0 0 161.61 194.86" style="enable-background:new 0 0 161.61 194.86;" xml:space="preserve">
<style type="text/css">
	.st0{fill:#B8DBE8;}
</style>
<path class="st0" d="M52.69,78.62c-14.12,8.29-22.89,23.88-22.75,40.24c0.15,18.45,11.72,36.17,30.21,40.57
	c-2.59,7.59-5.46,19.15-16.06,16.61c5.51-6.97,0.98-17.62-7.91-18.39c-8.87-0.77-14.64,8.5-11.24,16.34
	c3.43,7.92,11.96,13.19,20.43,13.76c8.88,0.6,17.24-4.69,21.07-12.63c2.26-4.7,3.76-9.78,5.4-14.72
	c14.17-1.03,27.17-10.15,30.94-24.17c3.52-13.11-1.79-27.58-13.87-34.21c2.56-8.86,5.35-18.45,8.33-28.48
	c14.23-5.51,28.2-13.46,35.41-28.08c4.04-8.2,7.81-18.52,5.16-32.89c-0.52-2.78-3-4.76-5.83-4.65
	c-18.12,0.74-32.14,18.84-43.99,56.89c-3.67,1.28-7.36,2.45-10.96,3.59C67.07,71.56,58.43,74.3,52.69,78.62 M89.78,117.96
	c3.19,5.53,3.55,12.35,1,18.2c-2.76,6.33-8.62,10.47-15.2,12.14c2.05-6.93,9.12-31.62,10.05-34.88
	C87.34,114.69,88.77,116.21,89.78,117.96C92.47,122.63,88.77,116.21,89.78,117.96z M127.3,20.46c0.33,7.56-1.71,13.6-4.85,19.98
	c-4.21,8.54-11.78,14.32-20.58,18.7C109.63,37.2,118.15,24.24,127.3,20.46z M80.47,79.26c1.17-0.37,2.35-0.75,3.55-1.13
	c-2.08,7.06-4.05,13.86-5.91,20.27c-8.94-1.31-18.42,1.47-23.95,8.92c-5.23,7.06-5.78,16.78-1.4,24.38
	c1.57,2.72,5.05,3.66,7.77,2.09c2.72-1.57,3.66-5.05,2.09-7.77c-2.11-3.65-1.89-8.31,0.56-11.75c2.67-3.75,7.31-5.07,11.73-4.77
	c-1.01,3.54-1.98,6.92-2.9,10.13c-3.28,11.46-6.12,21.38-8.39,28.91c-17.76-3.73-25.7-23.74-20.87-40.03
	c2.15-7.24,6.65-13.68,12.74-18.14C63.07,84.83,71.6,82.06,80.47,79.26L80.47,79.26z"/>
</svg>
