<?xml version="1.0" encoding="utf-8"?>
<!-- Generator: Adobe Illustrator 28.2.0, SVG Export Plug-In . SVG Version: 6.00 Build 0)  -->
<svg version="1.1" id="Layer_1" xmlns="http://www.w3.org/2000/svg" xmlns:xlink="http://www.w3.org/1999/xlink" x="0px" y="0px"
	 viewBox="0 0 40 40" style="enable-background:new 0 0 40 40;" xml:space="preserve">
<style type="text/css">
	.st0{fill:#C1C1EA;}
</style>
<path class="st0" d="M24.07,5.3l-10.94,6.12c-0.55,0.3-0.78,0.96-0.55,1.54l4.83,12.18c-0.84-0.12-1.71-0.04-2.56,0.29
	c-2.55,1.01-3.8,3.9-2.79,6.45s3.9,3.8,6.45,2.79c2.55-1.01,3.8-3.9,2.79-6.45l-3.72-9.39l9.99-5.58c0.54-0.3,0.78-0.96,0.55-1.54
	l-2.29-5.78c-0.13-0.34-0.4-0.59-0.74-0.71C24.76,5.1,24.38,5.12,24.07,5.3L24.07,5.3z"/>
</svg>
