<?xml version="1.0" encoding="utf-8"?>
<!-- Generator: Adobe Illustrator 28.2.0, SVG Export Plug-In . SVG Version: 6.00 Build 0)  -->
<svg version="1.1" id="Layer_1" xmlns="http://www.w3.org/2000/svg" xmlns:xlink="http://www.w3.org/1999/xlink" x="0px" y="0px"
	 viewBox="0 0 40 40" style="enable-background:new 0 0 40 40;" xml:space="preserve">
<style type="text/css">
	.st0{fill:#8FCFE2;}
</style>
<path class="st0" d="M28.34,10.54l-2.18-5.52c-0.13-0.32-0.38-0.56-0.7-0.68c-0.32-0.12-0.67-0.09-0.98,0.08l-15.7,8.76
	c-0.52,0.29-0.75,0.92-0.53,1.47l4.6,11.64c-0.8-0.12-1.64-0.04-2.45,0.28c-2.44,0.96-3.64,3.73-2.67,6.16
	c0.96,2.44,3.73,3.64,6.16,2.67c2.44-0.96,3.64-3.73,2.67-6.16l-3.55-8.98l13.6-7.59l1.92,4.86c-0.8-0.12-1.64-0.04-2.45,0.28
	c-2.44,0.96-3.64,3.73-2.67,6.16s3.73,3.64,6.16,2.67s3.64-3.73,2.67-6.16L28.34,10.54z"/>
</svg>
