<?xml version="1.0" encoding="utf-8"?>
<!-- Generator: Adobe Illustrator 28.2.0, SVG Export Plug-In . SVG Version: 6.00 Build 0)  -->
<svg version="1.1" id="Layer_1" xmlns="http://www.w3.org/2000/svg" xmlns:xlink="http://www.w3.org/1999/xlink" x="0px" y="0px"
	 viewBox="0 0 34.11 34" style="enable-background:new 0 0 34.11 34;" xml:space="preserve">
<style type="text/css">
	.st0{fill:#DBE8F0;}
</style>
<g>
	<rect x="0" y="0" class="st0" width="4.86" height="4.86"/>
	<rect x="9.73" y="0" class="st0" width="4.86" height="4.86"/>
	<rect x="4.86" y="4.86" class="st0" width="4.86" height="4.86"/>
	<rect x="0" y="9.73" class="st0" width="4.86" height="4.86"/>
	<rect x="9.73" y="9.73" class="st0" width="4.86" height="4.86"/>
	<rect x="4.86" y="14.59" class="st0" width="4.86" height="4.86"/>
	<rect x="9.73" y="19.45" class="st0" width="4.86" height="4.86"/>
	<rect x="19.45" y="0" class="st0" width="4.86" height="4.86"/>
	<rect x="14.59" y="4.86" class="st0" width="4.86" height="4.86"/>
	<rect x="24.32" y="4.86" class="st0" width="4.86" height="4.86"/>
	<rect x="19.45" y="9.73" class="st0" width="4.86" height="4.86"/>
	<rect x="14.59" y="14.59" class="st0" width="4.86" height="4.86"/>
	<rect x="29.24" y="0" class="st0" width="4.86" height="4.86"/>
	<rect x="0" y="19.45" class="st0" width="4.86" height="4.86"/>
	<rect x="0" y="29.14" class="st0" width="4.86" height="4.86"/>
	<rect x="4.86" y="24.27" class="st0" width="4.86" height="4.86"/>
	<rect x="4.86" y="0" class="st0" width="4.86" height="4.86"/>
	<rect x="0" y="4.86" class="st0" width="4.86" height="4.86"/>
</g>
</svg>
