<?xml version="1.0" encoding="utf-8"?>
<!-- Generator: Adobe Illustrator 28.2.0, SVG Export Plug-In . SVG Version: 6.00 Build 0)  -->
<svg version="1.1" id="Layer_1" xmlns="http://www.w3.org/2000/svg" xmlns:xlink="http://www.w3.org/1999/xlink" x="0px" y="0px"
	 viewBox="0 0 80 80" style="enable-background:new 0 0 80 80;" xml:space="preserve">
<style type="text/css">
	.st0{fill:#C1C1EA;}
	.st1{fill:#FFFFFF;}
	.st2{fill:#F94141;}
	.st3{fill:#D8D8D8;}
</style>
<g>
	<path class="st0" d="M22.95,67.79c-1.87,0.04-3.67-0.63-5.07-1.88c-0.33-0.29-0.79-0.36-1.19-0.18c-0.4,0.18-0.65,0.58-0.64,1.02
		c0.04,1.87-0.63,3.67-1.88,5.07C13.89,72.14,13.82,72.61,14,73c0.18,0.4,0.58,0.65,1.02,0.64c1.87-0.04,3.67,0.63,5.07,1.88
		c0.32,0.29,0.79,0.36,1.19,0.18c0.4-0.18,0.65-0.58,0.64-1.02c-0.04-1.87,0.63-3.67,1.88-5.07c0.29-0.32,0.36-0.79,0.18-1.19
		C23.79,68.03,23.39,67.78,22.95,67.79z"/>
	<g>
		<polygon class="st1" points="29.79,6.06 29.79,35.88 31.65,35.88 31.65,41.47 37.24,41.47 37.24,35.88 64.24,35.88 64.24,6.06 		
			"/>
		<g>
			<path d="M26.06,43.34v1.86h11.18v-1.86h1.86v-1.86h1.86v-1.86h21.41v-1.86H37.24v3.73h-1.86v1.86h-5.59v-1.86h1.86v-5.59h-1.86
				v3.73h-1.86v3.73L26.06,43.34z"/>
			<path d="M29.79,7.92h-1.86v27.96h1.86v-1.86V7.92z"/>
			<path d="M31.65,7.92h-1.86V6.06h1.86V7.92z"/>
			<path d="M62.38,6.06V4.2H31.65v1.86H62.38z"/>
			<g>
				<path d="M64.24,37.75h-1.86v-1.86h1.86V37.75z"/>
				<path d="M64.24,7.92h-1.86V6.06h1.86V7.92z"/>
				<path d="M64.24,35.89h1.86V7.92h-1.86v1.86V35.89z"/>
			</g>
		</g>
		<path class="st2" d="M54.1,15.29h-5.2v1.3h-1.3v2.6h-1.3v-2.6H45v-1.3h-5.2v1.3h-1.3v6.5h1.3v1.3h1.3v1.3h1.3v1.3h1.3v1.3H45v1.3
			h1.3v1.3h1.3v-1.3h1.3v-1.3h1.3v-1.3h1.3v-1.3h1.3v-1.3h1.3v-1.3h1.3v-6.5h-1.3V15.29z M42.4,17.89h-1.3v3.9h-1.3v-3.9h1.3v-1.3
			h1.3V17.89z"/>
		<rect x="37.26" y="35.88" class="st3" width="25.14" height="1.83"/>
		<rect x="29.82" y="41.47" class="st3" width="5.56" height="1.88"/>
	</g>
</g>
</svg>
