<?xml version="1.0" encoding="utf-8"?>
<!-- Generator: Adobe Illustrator 28.2.0, SVG Export Plug-In . SVG Version: 6.00 Build 0)  -->
<svg version="1.1" id="Layer_1" xmlns="http://www.w3.org/2000/svg" xmlns:xlink="http://www.w3.org/1999/xlink" x="0px" y="0px"
	 viewBox="0 0 20 20" style="enable-background:new 0 0 20 20;" xml:space="preserve">
<style type="text/css">
	.st0{fill:#8FCFE2;}
</style>
<path class="st0" d="M13.97,7.07C12.1,7.11,10.3,6.44,8.9,5.19C8.57,4.9,8.11,4.83,7.71,5.01C7.31,5.2,7.06,5.6,7.07,6.03
	C7.11,7.9,6.44,9.7,5.19,11.1c-0.29,0.32-0.36,0.79-0.18,1.19c0.18,0.4,0.58,0.65,1.02,0.64c1.87-0.04,3.67,0.63,5.07,1.88
	c0.32,0.29,0.79,0.36,1.19,0.18s0.65-0.58,0.64-1.02c-0.04-1.87,0.63-3.67,1.88-5.07c0.29-0.32,0.36-0.79,0.18-1.19
	C14.8,7.31,14.4,7.06,13.97,7.07z"/>
</svg>
