<?xml version="1.0" encoding="utf-8"?>
<!-- Generator: Adobe Illustrator 28.2.0, SVG Export Plug-In . SVG Version: 6.00 Build 0)  -->
<svg version="1.1" id="Layer_1" xmlns="http://www.w3.org/2000/svg" xmlns:xlink="http://www.w3.org/1999/xlink" x="0px" y="0px"
	 viewBox="0 0 20.35 20.35" style="enable-background:new 0 0 20.35 20.35;" xml:space="preserve">
<style type="text/css">
	.st0{fill:#3DB9BD;}
	.st1{fill:#E4004F;}
	.st2{fill:#0A0000;}
</style>
<g>
	<g>
		<path class="st0" d="M8.25,8.1V7.31C7.99,7.28,7.72,7.26,7.45,7.26c-3.3,0-5.98,2.68-5.98,5.98c0,2.02,1.01,3.81,2.55,4.89
			c-0.99-1.07-1.59-2.5-1.59-4.07C2.43,10.81,5.02,8.18,8.25,8.1z"/>
		<path class="st0" d="M8.39,16.81c1.47,0,2.69-1.19,2.75-2.65l0-12.99l2.36-0.02c-0.05-0.27-0.08-0.54-0.08-0.82h-3.25l-0.01,13.01
			c-0.05,1.46-1.25,2.63-2.72,2.63c-0.46,0-0.89-0.11-1.27-0.31C6.67,16.34,7.48,16.81,8.39,16.81z"/>
		<path class="st0" d="M17.94,5.58V4.84c-0.91,0-1.75-0.27-2.46-0.73C16.11,4.83,16.97,5.38,17.94,5.58z"/>
		<path class="st1" d="M15.48,4.11c-0.69-0.79-1.11-1.83-1.11-2.96H13.5C13.73,2.38,14.46,3.44,15.48,4.11z"/>
		<path class="st1" d="M7.45,10.5c-1.51,0-2.73,1.22-2.73,2.73c0,1.05,0.59,1.96,1.46,2.42c-0.32-0.45-0.52-1-0.52-1.59
			c0-1.51,1.22-2.73,2.73-2.73c0.28,0,0.55,0.05,0.81,0.13V8.14C8.93,8.1,8.67,8.08,8.39,8.08c-0.05,0-0.09,0-0.14,0v2.55
			C8,10.55,7.73,10.5,7.45,10.5z"/>
		<path class="st1" d="M17.94,5.56v2.52c-1.68,0-3.24-0.54-4.52-1.45v6.6c0,3.3-2.68,5.98-5.98,5.98c-1.27,0-2.45-0.4-3.43-1.08
			c1.09,1.17,2.65,1.91,4.37,1.91c3.3,0,5.98-2.68,5.98-5.98v-6.6c1.27,0.91,2.83,1.45,4.52,1.45V5.66
			C18.56,5.66,18.25,5.63,17.94,5.56z"/>
		<path class="st2" d="M13.42,13.23v-6.6c1.27,0.91,2.83,1.45,4.52,1.45V5.56c-0.97-0.21-1.83-0.73-2.46-1.46
			c-1.02-0.66-1.75-1.72-1.98-2.96h-2.38l-0.01,13.01c-0.05,1.46-1.25,2.63-2.72,2.63c-0.91,0-1.72-0.45-2.21-1.14
			c-0.87-0.46-1.46-1.37-1.46-2.42c0-1.51,1.22-2.73,2.73-2.73c0.28,0,0.55,0.05,0.81,0.13V8.08c-3.23,0.08-5.84,2.73-5.84,5.97
			c0,1.57,0.61,3,1.61,4.07c0.97,0.68,2.15,1.08,3.43,1.08C10.74,19.21,13.42,16.53,13.42,13.23z"/>
	</g>
</g>
</svg>
