<?xml version="1.0" encoding="utf-8"?>
<!-- Generator: Adobe Illustrator 28.2.0, SVG Export Plug-In . SVG Version: 6.00 Build 0)  -->
<svg version="1.1" id="Layer_1" xmlns="http://www.w3.org/2000/svg" xmlns:xlink="http://www.w3.org/1999/xlink" x="0px" y="0px"
	 viewBox="0 0 32 32" style="enable-background:new 0 0 32 32;" xml:space="preserve">
<style type="text/css">
	.st0{fill:#FFFFFF;}
</style>
<g>
	<path d="M25.12,31.57H6.88c-3.56,0-6.45-2.89-6.45-6.45V6.88c0-3.56,2.89-6.45,6.45-6.45l18.24,0c3.56,0,6.45,2.89,6.45,6.45v18.24
		C31.57,28.68,28.68,31.57,25.12,31.57z"/>
	<path class="st0" d="M17.61,14.68l6.29-7.31h-1.49l-5.46,6.35l-4.36-6.35H7.55l6.6,9.6l-6.6,7.67h1.49l5.77-6.7l4.61,6.7h5.03
		L17.61,14.68L17.61,14.68z M15.57,17.05L14.9,16.1L9.58,8.49h2.29l4.29,6.14l0.67,0.96l5.58,7.98h-2.29L15.57,17.05L15.57,17.05z"
		/>
</g>
</svg>
