<?xml version="1.0" encoding="utf-8"?>
<!-- Generator: Adobe Illustrator 28.2.0, SVG Export Plug-In . SVG Version: 6.00 Build 0)  -->
<svg version="1.1" id="Layer_1" xmlns="http://www.w3.org/2000/svg" xmlns:xlink="http://www.w3.org/1999/xlink" x="0px" y="0px"
	 viewBox="0 0 81.21 24.06" style="enable-background:new 0 0 81.21 24.06;" xml:space="preserve">
<style type="text/css">
	.st0{fill:#ED3024;}
	.st1{fill:#FFFFFF;}
	.st2{fill:#404041;}
</style>
<g>
	<g>
		<path class="st0" d="M26.09,6.1c-0.29-1.06-1.12-1.89-2.18-2.18C21.99,3.4,14.28,3.4,14.28,3.4s-7.7,0-9.63,0.52
			C3.59,4.2,2.76,5.04,2.47,6.1c-0.52,1.92-0.52,5.93-0.52,5.93s0,4.01,0.52,5.93c0.29,1.06,1.12,1.89,2.18,2.18
			c1.92,0.52,9.63,0.52,9.63,0.52s7.71,0,9.63-0.52c1.06-0.29,1.89-1.12,2.18-2.18c0.52-1.92,0.52-5.93,0.52-5.93
			S26.61,8.02,26.09,6.1z"/>
		<polygon class="st1" points="11.82,15.72 18.22,12.03 11.82,8.33 		"/>
	</g>
	<g>
		<path class="st2" d="M37.73,19.29c-0.49-0.33-0.83-0.84-1.04-1.53c-0.2-0.69-0.31-1.61-0.31-2.76v-1.57c0-1.16,0.11-2.09,0.35-2.8
			c0.24-0.7,0.6-1.22,1.1-1.54S39,8.59,39.81,8.59c0.8,0,1.44,0.16,1.92,0.49s0.83,0.85,1.05,1.54s0.34,1.63,0.34,2.8v1.57
			c0,1.15-0.11,2.08-0.32,2.78c-0.22,0.7-0.57,1.21-1.05,1.53c-0.49,0.32-1.15,0.49-1.98,0.49C38.9,19.78,38.22,19.62,37.73,19.29z
			 M40.47,17.6c0.14-0.35,0.2-0.93,0.2-1.73V12.5c0-0.77-0.06-1.34-0.2-1.7s-0.37-0.54-0.72-0.54c-0.33,0-0.56,0.18-0.7,0.54
			c-0.14,0.36-0.2,0.93-0.2,1.7v3.36c0,0.8,0.06,1.38,0.19,1.73s0.37,0.53,0.7,0.53C40.09,18.13,40.33,17.95,40.47,17.6z"/>
		<path class="st2" d="M75.18,15.01v0.55c0,0.7,0.02,1.21,0.06,1.56c0.04,0.34,0.13,0.6,0.26,0.76c0.13,0.16,0.33,0.24,0.6,0.24
			c0.37,0,0.62-0.14,0.75-0.42c0.14-0.28,0.21-0.75,0.22-1.41l2.09,0.12c0.01,0.09,0.01,0.22,0.01,0.39c0,1-0.27,1.74-0.82,2.24
			c-0.55,0.49-1.32,0.74-2.32,0.74c-1.2,0-2.04-0.37-2.52-1.13c-0.48-0.75-0.72-1.92-0.72-3.49v-1.89c0-1.62,0.25-2.8,0.75-3.55
			c0.5-0.75,1.36-1.12,2.57-1.12c0.83,0,1.48,0.15,1.92,0.46s0.76,0.78,0.94,1.43c0.18,0.65,0.27,1.54,0.27,2.68v1.85L75.18,15.01
			L75.18,15.01z M75.48,10.47c-0.12,0.15-0.21,0.4-0.24,0.75c-0.04,0.34-0.06,0.88-0.06,1.58v0.77h1.78V12.8
			c0-0.7-0.02-1.22-0.07-1.58s-0.13-0.61-0.26-0.76c-0.12-0.14-0.32-0.22-0.57-0.22C75.8,10.24,75.61,10.32,75.48,10.47z"/>
		<path class="st2" d="M31.81,14.81l-2.76-9.99h2.42l0.97,4.53c0.24,1.12,0.43,2.07,0.55,2.85h0.07c0.08-0.57,0.27-1.51,0.55-2.84
			l1-4.55h2.42l-2.8,9.99v4.8h-2.4L31.81,14.81L31.81,14.81z"/>
		<path class="st2" d="M50.98,8.8v10.81h-1.9l-0.22-1.32h-0.05c-0.52,1-1.29,1.5-2.32,1.5c-0.72,0-1.25-0.24-1.59-0.7
			c-0.34-0.47-0.51-1.2-0.51-2.2V8.8h2.43v7.93c0,0.48,0.05,0.82,0.16,1.03s0.28,0.31,0.53,0.31c0.22,0,0.42-0.06,0.61-0.19
			c0.19-0.13,0.34-0.29,0.43-0.49V8.8H50.98z"/>
		<path class="st2" d="M63.46,8.8v10.81h-1.9l-0.22-1.32h-0.05c-0.52,1-1.29,1.5-2.32,1.5c-0.72,0-1.25-0.24-1.59-0.7
			c-0.34-0.47-0.51-1.2-0.51-2.2V8.8h2.43v7.93c0,0.48,0.05,0.82,0.16,1.03c0.11,0.21,0.28,0.31,0.53,0.31
			c0.22,0,0.42-0.06,0.61-0.19c0.19-0.13,0.34-0.29,0.43-0.49V8.8H63.46z"/>
		<path class="st2" d="M57.59,6.77h-2.42v12.84h-2.38V6.77h-2.42V4.82h7.21L57.59,6.77L57.59,6.77z"/>
		<path class="st2" d="M71.5,10.53c-0.15-0.68-0.39-1.18-0.72-1.48C70.46,8.75,70,8.59,69.43,8.59c-0.44,0-0.86,0.13-1.25,0.38
			c-0.39,0.25-0.69,0.59-0.9,1h-0.01V4.28h-2.35v15.33h2.01l0.24-1.03h0.05c0.19,0.37,0.47,0.65,0.85,0.86
			c0.37,0.21,0.8,0.32,1.25,0.32c0.82,0,1.43-0.38,1.81-1.14c0.39-0.76,0.58-1.94,0.58-3.55v-1.7
			C71.73,12.16,71.65,11.21,71.5,10.53z M69.27,14.93c0,0.79-0.04,1.41-0.1,1.85c-0.06,0.44-0.17,0.77-0.32,0.95
			s-0.36,0.28-0.62,0.28c-0.2,0-0.39-0.05-0.55-0.14c-0.17-0.09-0.31-0.24-0.42-0.42v-6.13c0.08-0.29,0.22-0.54,0.42-0.72
			s0.42-0.28,0.65-0.28c0.24,0,0.44,0.1,0.57,0.29c0.14,0.19,0.23,0.52,0.28,0.98c0.05,0.46,0.08,1.11,0.08,1.96
			C69.27,13.54,69.27,14.93,69.27,14.93z"/>
	</g>
</g>
</svg>
