<?xml version="1.0" encoding="utf-8"?>
<!-- Generator: Adobe Illustrator 28.2.0, SVG Export Plug-In . SVG Version: 6.00 Build 0)  -->
<svg version="1.1" id="Layer_1" xmlns="http://www.w3.org/2000/svg" xmlns:xlink="http://www.w3.org/1999/xlink" x="0px" y="0px"
	 viewBox="0 0 20.35 20.35" style="enable-background:new 0 0 20.35 20.35;" xml:space="preserve">
<style type="text/css">
	.st0{fill:#ED3024;}
	.st1{fill:#FFFFFF;}
</style>
<g>
	<path class="st0" d="M19.79,5.35c-0.23-0.86-0.91-1.54-1.77-1.77c-1.56-0.42-7.84-0.42-7.84-0.42s-6.27,0-7.84,0.42
		C1.48,3.81,0.8,4.49,0.57,5.35c-0.42,1.56-0.42,4.83-0.42,4.83s0,3.26,0.42,4.83c0.23,0.86,0.91,1.54,1.77,1.77
		c1.56,0.42,7.84,0.42,7.84,0.42s6.27,0,7.84-0.42c0.86-0.23,1.54-0.91,1.77-1.77c0.42-1.56,0.42-4.83,0.42-4.83
		S20.21,6.91,19.79,5.35z"/>
	<polygon class="st1" points="8.17,13.19 13.38,10.18 8.17,7.17 	"/>
</g>
</svg>
